<?xml version="1.0" standalone="no"?>
<svg xmlns:xlink="http://www.w3.org/1999/xlink" id="wave" style="transform:rotate(0deg); transition: 0.3s" viewBox="0 0 1440 490" version="1.1" xmlns="http://www.w3.org/2000/svg"><defs><linearGradient id="sw-gradient-0" x1="0" x2="0" y1="1" y2="0"><stop stop-color="rgba(227, 133, 105, 1)" offset="0%"/><stop stop-color="rgba(255, 179, 11, 1)" offset="100%"/></linearGradient></defs><path style="transform:translate(0, 0px); opacity:1" fill="url(#sw-gradient-0)" d="M0,441L40,367.5C80,294,160,147,240,98C320,49,400,98,480,98C560,98,640,49,720,65.3C800,82,880,163,960,220.5C1040,278,1120,310,1200,302.2C1280,294,1360,245,1440,204.2C1520,163,1600,131,1680,155.2C1760,180,1840,261,1920,277.7C2000,294,2080,245,2160,212.3C2240,180,2320,163,2400,187.8C2480,212,2560,278,2640,302.2C2720,327,2800,310,2880,269.5C2960,229,3040,163,3120,138.8C3200,114,3280,131,3360,138.8C3440,147,3520,147,3600,155.2C3680,163,3760,180,3840,171.5C3920,163,4000,131,4080,155.2C4160,180,4240,261,4320,310.3C4400,359,4480,376,4560,318.5C4640,261,4720,131,4800,65.3C4880,0,4960,0,5040,57.2C5120,114,5200,229,5280,269.5C5360,310,5440,278,5520,236.8C5600,196,5680,147,5720,122.5L5760,98L5760,490L5720,490C5680,490,5600,490,5520,490C5440,490,5360,490,5280,490C5200,490,5120,490,5040,490C4960,490,4880,490,4800,490C4720,490,4640,490,4560,490C4480,490,4400,490,4320,490C4240,490,4160,490,4080,490C4000,490,3920,490,3840,490C3760,490,3680,490,3600,490C3520,490,3440,490,3360,490C3280,490,3200,490,3120,490C3040,490,2960,490,2880,490C2800,490,2720,490,2640,490C2560,490,2480,490,2400,490C2320,490,2240,490,2160,490C2080,490,2000,490,1920,490C1840,490,1760,490,1680,490C1600,490,1520,490,1440,490C1360,490,1280,490,1200,490C1120,490,1040,490,960,490C880,490,800,490,720,490C640,490,560,490,480,490C400,490,320,490,240,490C160,490,80,490,40,490L0,490Z"/></svg>